<?xml version="1.0" encoding="UTF-8"?>
<svg version="1.1" viewBox="0 0 2048 2048" width="38" height="38" xmlns="http://www.w3.org/2000/svg">
<path fill="#FFFFFF" opacity="1.000000" stroke="none" 
	d="
M1.000002,818.000000 
	C1.000000,810.639832 1.000000,803.279602 1.335264,795.367981 
	C21.105839,781.212036 40.454895,767.481689 60.027405,754.077515 
	C66.135391,749.894592 69.317413,745.726624 69.288094,737.324158 
	C68.866730,616.570557 69.000000,495.815002 69.000000,375.059937 
	C69.000000,373.128876 69.000000,371.197815 69.000000,369.000000 
	C45.923088,369.000000 23.461544,369.000000 1.000000,369.000000 
	C1.000000,246.358261 1.000000,123.716515 1.000000,1.074775 
	C1.141708,1.049850 1.283416,1.003075 1.425124,1.003074 
	C395.178436,0.999992 788.931763,1.000000 1183.000000,1.000000 
	C1183.000000,173.026733 1183.000000,345.053650 1182.631836,517.392212 
	C1181.510376,513.723572 1180.504517,509.772003 1180.048340,505.757965 
	C1178.291992,490.307709 1173.969604,475.515167 1167.652222,461.438873 
	C1158.441162,440.915161 1145.486206,423.105988 1128.109985,408.433868 
	C1112.354736,395.130493 1094.864746,385.088531 1075.630127,378.084930 
	C1057.708862,371.559479 1039.319214,366.574646 1020.106445,366.073395 
	C1005.264648,365.686188 990.313171,364.983246 975.575989,366.288666 
	C958.472839,367.803680 941.694885,371.987549 925.554260,378.162964 
	C905.961182,385.659241 887.716125,395.629364 872.010498,409.612854 
	C854.927002,424.823242 841.720276,442.897552 832.865356,464.211517 
	C824.050659,485.428650 820.308533,507.605530 819.132019,530.286499 
	C818.662415,539.337891 819.187561,548.515015 820.118713,557.546326 
	C821.286560,568.874207 822.484558,580.318909 825.171692,591.347168 
	C832.297058,620.590637 846.457275,645.880188 868.849548,666.504517 
	C883.560669,680.054138 900.045776,690.416138 918.408630,698.122009 
	C939.107361,706.808167 960.649231,712.553101 982.948364,713.739441 
	C1003.152893,714.814392 1023.410522,714.491821 1043.552246,710.200073 
	C1074.243774,703.660461 1102.387451,692.299255 1126.624390,671.952698 
	C1141.884888,659.141724 1154.277832,644.209412 1163.331177,626.369873 
	C1173.163574,606.995178 1179.270996,586.665283 1181.077271,565.014648 
	C1181.165039,563.963623 1182.334351,563.002808 1183.000000,562.000000 
	C1183.000000,768.959900 1183.000000,975.919861 1183.000000,1182.939941 
	C789.116333,1182.939941 395.232697,1182.939941 1.000000,1182.939941 
	C1.000000,1061.973389 1.000000,940.946411 1.468657,819.459717 
	C394.192963,819.000000 786.448608,819.000000 1178.663574,819.000000 
	C1178.663574,799.672424 1178.663574,780.944336 1178.663574,762.000000 
	C1176.844360,762.000000 1175.360596,762.000000 1173.876709,762.000000 
	C810.885132,762.000000 447.893555,761.994141 84.902046,762.111450 
	C82.209412,762.112305 79.231102,763.336670 76.886528,764.794495 
	C72.469208,767.541016 68.478325,770.962524 64.203194,773.950439 
	C43.154755,788.661255 22.071173,803.321716 1.000002,818.000000 
M552.029785,422.006104 
	C570.583496,422.337067 589.143738,422.462311 607.688965,423.057098 
	C626.123779,423.648346 643.570190,428.432098 659.886353,437.033569 
	C665.725708,440.111908 671.275940,443.738678 677.144592,447.651733 
	C677.724915,448.115326 678.305298,448.578888 679.155273,449.662781 
	C680.756226,450.813568 682.357239,451.964355 684.220215,453.734772 
	C688.216675,458.688904 692.486206,463.449463 696.159363,468.632721 
	C708.058411,485.423828 713.577881,504.672516 714.753906,524.790588 
	C715.942200,545.118652 715.464661,565.469116 709.188354,585.395874 
	C703.200378,604.407043 693.444885,620.851440 678.036438,633.168396 
	C658.095032,649.108765 634.643738,656.465515 609.168579,656.945374 
	C593.508728,657.240417 577.835938,656.844604 562.175720,657.129395 
	C558.990479,657.187317 555.350159,658.192261 552.745850,659.970642 
	C536.770325,670.879700 521.013855,682.110596 505.224976,693.291626 
	C499.415894,697.405396 493.717133,701.674988 487.236755,705.995178 
	C485.405243,707.267761 483.573730,708.540283 481.742218,709.812866 
	C481.930206,710.208557 482.118164,710.604309 482.306152,711.000000 
	C484.077637,711.000000 485.849121,711.000000 487.620605,711.000000 
	C518.445557,711.000000 549.271118,711.110474 580.095276,710.955566 
	C596.686829,710.872192 613.275513,710.307068 629.866394,710.007629 
	C649.967285,709.644836 669.294495,705.242432 687.844116,697.870789 
	C710.176270,688.995911 729.965881,676.276123 746.409790,658.312988 
	C758.942017,644.622864 768.690735,629.389587 775.203125,612.182922 
	C778.783875,602.721985 781.001221,592.745117 783.980347,582.357178 
	C784.024109,581.919739 784.067871,581.482300 784.733887,580.732239 
	C784.767090,579.821716 784.800232,578.911255 784.978760,577.270813 
	C785.023071,576.528809 785.067322,575.786865 785.733887,574.732239 
	C785.767090,573.821716 785.800232,572.911255 785.978577,571.219055 
	C786.022888,570.161011 786.067261,569.102905 786.733887,567.732239 
	C786.767029,566.821716 786.800171,565.911255 786.978516,564.159790 
	C787.022888,562.454834 787.067261,560.749817 787.733887,558.732239 
	C787.767029,557.821716 787.800171,556.911255 787.978943,555.073486 
	C787.654297,542.988220 787.445862,530.898438 786.976440,518.818787 
	C786.345154,502.575012 781.986694,487.125458 776.469910,471.964661 
	C769.187195,451.950653 757.941772,434.309723 743.327087,418.957886 
	C729.011536,403.920227 712.161743,392.296692 693.052917,383.982208 
	C671.452148,374.583374 648.994385,369.115479 625.378113,369.026154 
	C596.398743,368.916595 567.418579,368.978882 538.438782,369.006744 
	C515.625183,369.028717 492.811615,369.111084 469.371460,369.191681 
	C469.441437,369.716278 469.511414,370.240906 469.893280,371.381989 
	C472.093536,376.247772 474.201385,381.158020 476.515533,385.969025 
	C480.087799,393.395508 482.212036,400.845276 482.182770,409.423126 
	C481.884155,497.050598 481.998505,584.679443 482.007141,672.307922 
	C482.007416,674.969543 482.113434,677.631165 482.024536,680.963928 
	C482.024536,682.636230 482.024536,684.308533 482.024536,686.939636 
	C484.344757,685.060059 485.545044,683.961243 486.866760,683.035767 
	C507.497559,668.589050 528.170166,654.201599 548.719788,639.640686 
	C549.918579,638.791199 550.151123,636.578064 550.979004,634.072449 
	C550.986023,606.300964 550.984070,578.529419 551.002075,550.757935 
	C551.029907,507.854950 551.071411,464.951935 552.029785,422.006104 
M230.638519,554.000000 
	C251.064178,554.333069 271.488892,554.761597 291.915833,554.965088 
	C305.099030,555.096436 317.918121,557.525024 330.420715,561.292969 
	C342.679016,564.987183 353.605591,571.239685 360.770844,582.356079 
	C367.200989,592.331970 368.764465,603.279358 367.111969,615.077026 
	C364.676636,632.463501 354.939972,643.545532 339.145416,650.035339 
	C326.396667,655.273621 313.023895,656.943420 299.387085,656.983154 
	C277.722595,657.046265 256.057495,656.952637 234.393570,657.080994 
	C232.453430,657.092468 230.230316,657.821472 228.626923,658.925964 
	C204.677551,675.425415 180.806290,692.038269 156.951859,708.674927 
	C156.448959,709.025696 156.363495,709.974976 155.934845,711.000000 
	C158.225876,711.000000 160.049438,711.000000 161.873001,711.000000 
	C201.036087,711.000000 240.199265,710.951660 279.362244,711.019348 
	C300.657471,711.056152 321.903717,710.726318 342.974915,707.037903 
	C365.923798,703.020813 387.633850,696.322327 406.271057,681.441589 
	C418.140930,671.964172 426.608643,660.247620 431.956329,646.260559 
	C438.166962,630.016602 439.152344,613.193787 437.098419,595.971497 
	C435.313507,581.004944 430.168793,567.461609 420.460327,556.122375 
	C403.252625,536.024170 380.420258,527.089478 354.317535,524.621033 
	C355.329315,524.057007 356.215546,523.464233 357.176849,523.042664 
	C364.408234,519.871460 372.534485,517.933105 378.742462,513.376831 
	C404.476685,494.489502 414.394836,468.196716 409.693481,437.169128 
	C406.497040,416.073425 394.956299,399.103973 377.246246,386.789856 
	C361.679260,375.965851 344.477234,369.190033 325.412720,369.100861 
	C266.419403,368.824829 207.423950,369.000000 148.429337,369.000000 
	C146.691696,369.000000 144.954056,369.000000 142.663239,369.000000 
	C145.872955,375.869873 148.738510,382.018402 151.617416,388.160614 
	C154.407364,394.113068 156.161789,400.077332 156.145386,406.944061 
	C155.927582,498.101898 156.000000,589.260437 156.000000,680.418762 
	C156.000000,682.263916 156.000000,684.109131 156.000000,687.065247 
	C158.074020,685.230103 158.969620,684.263184 160.026505,683.528259 
	C180.569412,669.244629 201.083313,654.918091 221.739014,640.799133 
	C224.942764,638.609253 226.126999,636.313538 226.096863,632.419006 
	C225.906067,607.756042 226.016541,583.090881 225.975998,558.426514 
	C225.971649,555.783386 225.707901,553.201599 230.638519,554.000000 
z"/>
<path fill="#ED1A3B" opacity="1.000000" stroke="none" 
	d="
M1.000002,818.250000 
	C22.071173,803.321716 43.154755,788.661255 64.203194,773.950439 
	C68.478325,770.962524 72.469208,767.541016 76.886528,764.794495 
	C79.231102,763.336670 82.209412,762.112305 84.902046,762.111450 
	C447.893555,761.994141 810.885132,762.000000 1173.876709,762.000000 
	C1175.360596,762.000000 1176.844360,762.000000 1178.663574,762.000000 
	C1178.663574,780.944336 1178.663574,799.672424 1178.663574,819.000000 
	C786.448608,819.000000 394.192963,819.000000 1.468657,819.000000 
	C1.000000,819.000000 1.000000,818.500000 1.000002,818.250000 
z"/>
<path fill="#22409A" opacity="1.000000" stroke="none" 
	d="
M1183.000000,561.666626 
	C1182.334351,563.002808 1181.165039,563.963623 1181.077271,565.014648 
	C1179.270996,586.665283 1173.163574,606.995178 1163.331177,626.369873 
	C1154.277832,644.209412 1141.884888,659.141724 1126.624390,671.952698 
	C1102.387451,692.299255 1074.243774,703.660461 1043.552246,710.200073 
	C1023.410522,714.491821 1003.152893,714.814392 982.948364,713.739441 
	C960.649231,712.553101 939.107361,706.808167 918.408630,698.122009 
	C900.045776,690.416138 883.560669,680.054138 868.849548,666.504517 
	C846.457275,645.880188 832.297058,620.590637 825.171692,591.347168 
	C822.484558,580.318909 821.286560,568.874207 820.118713,557.546326 
	C819.187561,548.515015 818.662415,539.337891 819.132019,530.286499 
	C820.308533,507.605530 824.050659,485.428650 832.865356,464.211517 
	C841.720276,442.897552 854.927002,424.823242 872.010498,409.612854 
	C887.716125,395.629364 905.961182,385.659241 925.554260,378.162964 
	C941.694885,371.987549 958.472839,367.803680 975.575989,366.288666 
	C990.313171,364.983246 1005.264648,365.686188 1020.106445,366.073395 
	C1039.319214,366.574646 1057.708862,371.559479 1075.630127,378.084930 
	C1094.864746,385.088531 1112.354736,395.130493 1128.109985,408.433868 
	C1145.486206,423.105988 1158.441162,440.915161 1167.652222,461.438873 
	C1173.969604,475.515167 1178.291992,490.307709 1180.048340,505.757965 
	C1180.504517,509.772003 1181.510376,513.723572 1182.631836,517.851929 
	C1183.000000,518.000000 1183.000000,518.500000 1182.615601,518.926636 
	C1182.487427,522.568848 1182.743774,525.784424 1183.000000,529.000000 
	C1183.000000,535.687622 1183.000000,542.375305 1182.615601,549.708130 
	C1182.487427,553.568848 1182.743774,556.784424 1183.000000,560.000000 
	C1183.000000,560.444458 1183.000000,560.888916 1183.000000,561.666626 
M1001.469360,662.999939 
	C1009.071045,662.000671 1016.756104,661.419800 1024.258911,659.924683 
	C1048.015381,655.190857 1068.021240,643.414062 1083.354736,624.883118 
	C1102.055054,602.283264 1108.667114,575.032349 1109.911743,546.356812 
	C1110.668213,528.924561 1108.824341,511.654938 1103.995605,494.797791 
	C1095.389282,464.753265 1077.811523,441.892853 1049.547119,427.994446 
	C1027.287231,417.048676 1003.828491,414.162018 979.419556,418.970215 
	C951.001892,424.568054 928.260437,438.985382 912.087463,463.009003 
	C898.963074,482.503967 893.501709,504.722443 892.143616,527.854248 
	C891.265198,542.816223 891.927917,557.804810 894.916626,572.658691 
	C899.859619,597.224976 910.050354,618.700195 929.072754,635.653015 
	C949.499878,653.857788 973.758728,661.601501 1001.469360,662.999939 
z"/>
<path fill="#ED1A3B" opacity="1.000000" stroke="none" 
	d="
M1.000000,369.468658 
	C23.461544,369.000000 45.923088,369.000000 69.000000,369.000000 
	C69.000000,371.197815 69.000000,373.128876 69.000000,375.059937 
	C69.000000,495.815002 68.866730,616.570557 69.288094,737.324158 
	C69.317413,745.726624 66.135391,749.894592 60.027405,754.077515 
	C40.454895,767.481689 21.105839,781.212036 1.335264,794.908264 
	C1.000000,653.312439 1.000000,511.624878 1.000000,369.468658 
z"/>
<path fill="#FFFFFF" opacity="1.000000" stroke="none" 
	d="
M1183.000000,528.545898 
	C1182.743774,525.784424 1182.487427,522.568848 1182.615601,519.176636 
	C1183.000000,522.030579 1183.000000,525.061218 1183.000000,528.545898 
z"/>
<path fill="#FFFFFF" opacity="1.000000" stroke="none" 
	d="
M1183.000000,559.545898 
	C1182.743774,556.784424 1182.487427,553.568848 1182.615601,550.176636 
	C1183.000000,553.030579 1183.000000,556.061218 1183.000000,559.545898 
z"/>
<path fill="#22409A" opacity="1.000000" stroke="none" 
	d="
M230.155609,554.000000 
	C225.707901,553.201599 225.971649,555.783386 225.975998,558.426514 
	C226.016541,583.090881 225.906067,607.756042 226.096863,632.419006 
	C226.126999,636.313538 224.942764,638.609253 221.739014,640.799133 
	C201.083313,654.918091 180.569412,669.244629 160.026505,683.528259 
	C158.969620,684.263184 158.074020,685.230103 156.000000,687.065247 
	C156.000000,684.109131 156.000000,682.263916 156.000000,680.418762 
	C156.000000,589.260437 155.927582,498.101898 156.145386,406.944061 
	C156.161789,400.077332 154.407364,394.113068 151.617416,388.160614 
	C148.738510,382.018402 145.872955,375.869873 142.663239,369.000000 
	C144.954056,369.000000 146.691696,369.000000 148.429337,369.000000 
	C207.423950,369.000000 266.419403,368.824829 325.412720,369.100861 
	C344.477234,369.190033 361.679260,375.965851 377.246246,386.789856 
	C394.956299,399.103973 406.497040,416.073425 409.693481,437.169128 
	C414.394836,468.196716 404.476685,494.489502 378.742462,513.376831 
	C372.534485,517.933105 364.408234,519.871460 357.176849,523.042664 
	C356.215546,523.464233 355.329315,524.057007 354.317535,524.621033 
	C380.420258,527.089478 403.252625,536.024170 420.460327,556.122375 
	C430.168793,567.461609 435.313507,581.004944 437.098419,595.971497 
	C439.152344,613.193787 438.166962,630.016602 431.956329,646.260559 
	C426.608643,660.247620 418.140930,671.964172 406.271057,681.441589 
	C387.633850,696.322327 365.923798,703.020813 342.974915,707.037903 
	C321.903717,710.726318 300.657471,711.056152 279.362244,711.019348 
	C240.199265,710.951660 201.036087,711.000000 161.873001,711.000000 
	C160.049438,711.000000 158.225876,711.000000 155.934845,711.000000 
	C156.363495,709.974976 156.448959,709.025696 156.951859,708.674927 
	C180.806290,692.038269 204.677551,675.425415 228.626923,658.925964 
	C230.230316,657.821472 232.453430,657.092468 234.393570,657.080994 
	C256.057495,656.952637 277.722595,657.046265 299.387085,656.983154 
	C313.023895,656.943420 326.396667,655.273621 339.145416,650.035339 
	C354.939972,643.545532 364.676636,632.463501 367.111969,615.077026 
	C368.764465,603.279358 367.200989,592.331970 360.770844,582.356079 
	C353.605591,571.239685 342.679016,564.987183 330.420715,561.292969 
	C317.918121,557.525024 305.099030,555.096436 291.915833,554.965088 
	C271.488892,554.761597 251.064178,554.333069 230.155609,554.000000 
M282.499878,422.000000 
	C263.741943,422.000000 244.984024,422.000000 226.359497,422.000000 
	C226.359497,450.714844 226.359497,478.775940 226.359497,506.000305 
	C248.467957,506.000305 270.250122,506.773224 291.943115,505.716064 
	C305.374084,505.061523 317.960876,499.648560 328.044189,490.308075 
	C338.884308,480.266541 343.041687,467.787781 341.187683,452.785950 
	C339.661530,440.436646 329.802704,428.072205 317.804840,424.904694 
	C306.477448,421.914124 295.020935,421.921356 282.499878,422.000000 
z"/>
<path fill="#22409A" opacity="1.000000" stroke="none" 
	d="
M786.111633,568.044861 
	C786.067261,569.102905 786.022888,570.161011 785.588013,571.667847 
	C785.168884,573.092651 785.140259,574.068787 785.111572,575.044861 
	C785.067322,575.786865 785.023071,576.528809 784.588135,577.693726 
	C784.168884,579.092651 784.140259,580.068787 784.111633,581.044861 
	C784.067871,581.482300 784.024109,581.919739 783.553345,582.762695 
	C780.420288,591.268188 777.803955,599.399475 774.990479,607.461914 
	C768.056396,627.332703 756.538818,644.652771 741.483459,658.823120 
	C726.460571,672.962891 710.359070,685.875122 690.005737,693.050720 
	C667.463623,700.997803 644.607605,706.449158 620.900391,706.814575 
	C578.301819,707.471252 535.685791,707.013000 493.077118,706.952454 
	C491.373596,706.950073 489.671082,706.249084 487.968109,705.873535 
	C493.717133,701.674988 499.415894,697.405396 505.224976,693.291626 
	C521.013855,682.110596 536.770325,670.879700 552.745850,659.970642 
	C555.350159,658.192261 558.990479,657.187317 562.175720,657.129395 
	C577.835938,656.844604 593.508728,657.240417 609.168579,656.945374 
	C634.643738,656.465515 658.095032,649.108765 678.036438,633.168396 
	C693.444885,620.851440 703.200378,604.407043 709.188354,585.395874 
	C715.464661,565.469116 715.942200,545.118652 714.753906,524.790588 
	C713.577881,504.672516 708.058411,485.423828 696.159363,468.632721 
	C692.486206,463.449463 688.216675,458.688904 684.099365,453.009216 
	C684.326660,447.988708 681.181396,449.183014 678.885620,449.042450 
	C678.305298,448.578888 677.724915,448.115326 677.061646,446.978638 
	C676.754272,445.370270 676.850098,444.005859 676.257690,443.563904 
	C666.915222,436.594330 657.083984,430.549622 645.911621,426.793091 
	C633.311157,422.556396 620.574463,419.229462 607.198242,418.973694 
	C589.289673,418.631256 571.380493,418.322601 553.471375,418.004730 
	C550.302917,417.948486 548.937012,418.971649 551.107117,422.048950 
	C551.071411,464.951935 551.029907,507.854950 551.002075,550.757935 
	C550.984070,578.529419 550.986023,606.300964 550.549316,634.541687 
	C549.629150,635.090515 549.029419,635.014709 548.663940,635.271851 
	C530.086426,648.339661 511.570770,661.496033 492.930084,674.472961 
	C489.604614,676.788086 485.769806,678.371521 482.170135,680.292786 
	C482.113434,677.631165 482.007416,674.969543 482.007141,672.307922 
	C481.998505,584.679443 481.884155,497.050598 482.182770,409.423126 
	C482.212036,400.845276 480.087799,393.395508 476.515533,385.969025 
	C474.201385,381.158020 472.093536,376.247772 469.873962,370.680725 
	C469.902466,369.708527 469.950256,369.437592 469.998047,369.166626 
	C492.811615,369.111084 515.625183,369.028717 538.438782,369.006744 
	C567.418579,368.978882 596.398743,368.916595 625.378113,369.026154 
	C648.994385,369.115479 671.452148,374.583374 693.052917,383.982208 
	C712.161743,392.296692 729.011536,403.920227 743.327087,418.957886 
	C757.941772,434.309723 769.187195,451.950653 776.469910,471.964661 
	C781.986694,487.125458 786.345154,502.575012 786.976440,518.818787 
	C787.445862,530.898438 787.654297,542.988220 787.588257,555.595032 
	C787.168884,557.092651 787.140259,558.068787 787.111694,559.044861 
	C787.067261,560.749817 787.022888,562.454834 786.588013,564.638184 
	C786.168884,566.092651 786.140259,567.068787 786.111633,568.044861 
z"/>
<path fill="#22409A" opacity="1.000000" stroke="none" 
	d="
M487.602417,705.934387 
	C489.671082,706.249084 491.373596,706.950073 493.077118,706.952454 
	C535.685791,707.013000 578.301819,707.471252 620.900391,706.814575 
	C644.607605,706.449158 667.463623,700.997803 690.005737,693.050720 
	C710.359070,685.875122 726.460571,672.962891 741.483459,658.823120 
	C756.538818,644.652771 768.056396,627.332703 774.990479,607.461914 
	C777.803955,599.399475 780.420288,591.268188 783.479858,583.084595 
	C781.001221,592.745117 778.783875,602.721985 775.203125,612.182922 
	C768.690735,629.389587 758.942017,644.622864 746.409790,658.312988 
	C729.965881,676.276123 710.176270,688.995911 687.844116,697.870789 
	C669.294495,705.242432 649.967285,709.644836 629.866394,710.007629 
	C613.275513,710.307068 596.686829,710.872192 580.095276,710.955566 
	C549.271118,711.110474 518.445557,711.000000 487.620605,711.000000 
	C485.849121,711.000000 484.077637,711.000000 482.306152,711.000000 
	C482.118164,710.604309 481.930206,710.208557 481.742218,709.812866 
	C483.573730,708.540283 485.405243,707.267761 487.602417,705.934387 
z"/>
<path fill="#22409A" opacity="1.000000" stroke="none" 
	d="
M551.568481,422.027527 
	C548.937012,418.971649 550.302917,417.948486 553.471375,418.004730 
	C571.380493,418.322601 589.289673,418.631256 607.198242,418.973694 
	C620.574463,419.229462 633.311157,422.556396 645.911621,426.793091 
	C657.083984,430.549622 666.915222,436.594330 676.257690,443.563904 
	C676.850098,444.005859 676.754272,445.370270 676.968384,446.710358 
	C671.275940,443.738678 665.725708,440.111908 659.886353,437.033569 
	C643.570190,428.432098 626.123779,423.648346 607.688965,423.057098 
	C589.143738,422.462311 570.583496,422.337067 551.568481,422.027527 
z"/>
<path fill="#22409A" opacity="1.000000" stroke="none" 
	d="
M482.097351,680.628357 
	C485.769806,678.371521 489.604614,676.788086 492.930084,674.472961 
	C511.570770,661.496033 530.086426,648.339661 548.663940,635.271851 
	C549.029419,635.014709 549.629150,635.090515 550.476440,635.005249 
	C550.151123,636.578064 549.918579,638.791199 548.719788,639.640686 
	C528.170166,654.201599 507.497559,668.589050 486.866760,683.035767 
	C485.545044,683.961243 484.344757,685.060059 482.024536,686.939636 
	C482.024536,684.308533 482.024536,682.636230 482.097351,680.628357 
z"/>
<path fill="#22409A" opacity="1.000000" stroke="none" 
	d="
M679.020447,449.352600 
	C681.181396,449.183014 684.326660,447.988708 683.968384,452.699402 
	C682.357239,451.964355 680.756226,450.813568 679.020447,449.352600 
z"/>
<path fill="#22409A" opacity="1.000000" stroke="none" 
	d="
M787.422729,558.888550 
	C787.140259,558.068787 787.168884,557.092651 787.515442,556.058655 
	C787.800171,556.911255 787.767029,557.821716 787.422729,558.888550 
z"/>
<path fill="#22409A" opacity="1.000000" stroke="none" 
	d="
M786.422729,567.888550 
	C786.140259,567.068787 786.168884,566.092651 786.515442,565.058655 
	C786.800171,565.911255 786.767029,566.821716 786.422729,567.888550 
z"/>
<path fill="#22409A" opacity="1.000000" stroke="none" 
	d="
M785.422729,574.888550 
	C785.140259,574.068787 785.168884,573.092651 785.515442,572.058655 
	C785.800232,572.911255 785.767090,573.821716 785.422729,574.888550 
z"/>
<path fill="#22409A" opacity="1.000000" stroke="none" 
	d="
M784.422729,580.888550 
	C784.140259,580.068787 784.168884,579.092651 784.515442,578.058655 
	C784.800232,578.911255 784.767090,579.821716 784.422729,580.888550 
z"/>
<path fill="#22409A" opacity="1.000000" stroke="none" 
	d="
M469.684753,369.179138 
	C469.950256,369.437592 469.902466,369.708527 469.718018,370.372498 
	C469.511414,370.240906 469.441437,369.716278 469.684753,369.179138 
z"/>
<path fill="#FFFFFF" opacity="1.000000" stroke="none" 
	d="
M1000.999756,663.000000 
	C973.758728,661.601501 949.499878,653.857788 929.072754,635.653015 
	C910.050354,618.700195 899.859619,597.224976 894.916626,572.658691 
	C891.927917,557.804810 891.265198,542.816223 892.143616,527.854248 
	C893.501709,504.722443 898.963074,482.503967 912.087463,463.009003 
	C928.260437,438.985382 951.001892,424.568054 979.419556,418.970215 
	C1003.828491,414.162018 1027.287231,417.048676 1049.547119,427.994446 
	C1077.811523,441.892853 1095.389282,464.753265 1103.995605,494.797791 
	C1108.824341,511.654938 1110.668213,528.924561 1109.911743,546.356812 
	C1108.667114,575.032349 1102.055054,602.283264 1083.354736,624.883118 
	C1068.021240,643.414062 1048.015381,655.190857 1024.258911,659.924683 
	C1016.756104,661.419800 1009.071045,662.000671 1000.999756,663.000000 
z"/>
<path fill="#FFFFFF" opacity="1.000000" stroke="none" 
	d="
M282.999817,422.000000 
	C295.020935,421.921356 306.477448,421.914124 317.804840,424.904694 
	C329.802704,428.072205 339.661530,440.436646 341.187683,452.785950 
	C343.041687,467.787781 338.884308,480.266541 328.044189,490.308075 
	C317.960876,499.648560 305.374084,505.061523 291.943115,505.716064 
	C270.250122,506.773224 248.467957,506.000305 226.359497,506.000305 
	C226.359497,478.775940 226.359497,450.714844 226.359497,422.000000 
	C244.984024,422.000000 263.741943,422.000000 282.999817,422.000000 
z"/>
</svg>